#!OML:ASF F:\VICON\USERDATA\INSTALL\rory3\rory3.ASF
:FULLY-SPECIFIED
:DEGREES
1378
root 5.587 17.4602 1.25929 19.2197 2.90286 1.08124
lowerback -10.5028 -1.44379 10.044
upperback -13.9701 -2.33368 0.612873
thorax -9.71269 -2.14101 -4.95497
lowerneck -3.4366 19.5375 10.9921
upperneck 8.92217 25.5455 -0.0756056
head 4.57514 12.949 -0.0237981
rclavicle -1.80894e-014 3.10104e-014
rhumerus -9.23951 -29.4025 29.696
rradius 112.317
rwrist -63.3136
rhand -3.69309 -41.3343
rfingers 7.12502
rthumb 22.0487 -70.0974
lclavicle -1.80894e-014 3.10104e-014
lhumerus 23.3105 26.6801 -13.0491
lradius 32.6991
lwrist 56.6766
lhand -17.9973 -13.1612
lfingers 7.12502
lthumb 8.27298 16.6568
rfemur -11.7315 10.3586 -8.96023
rtibia 11.4183
rfoot -11.4065 -23.7163
rtoes 34.3327
lfemur -18.4369 3.04023 -30.9138
ltibia 16.0522
lfoot -15.9198 1.04222
ltoes 9.97366
1379
root 5.58081 17.4603 1.25371 19.2618 2.7641 1.17865
lowerback -10.4868 -1.43042 9.84449
upperback -14.0432 -2.30377 0.589826
thorax -9.78565 -2.11402 -4.86651
lowerneck -3.19692 19.522 11.0054
upperneck 8.81095 25.5499 -0.0585476
head 4.50291 12.9543 -0.0527136
rclavicle 5.62561e-014 5.08889e-014
rhumerus -9.19914 -29.2869 29.6937
rradius 112.34
rwrist -63.3542
rhand -3.75499 -41.3533
rfingers 7.12502
rthumb 21.9892 -70.1234
lclavicle 5.62561e-014 5.08889e-014
lhumerus 23.4263 26.5987 -12.933
lradius 32.6629
lwrist 56.5015
lhand -17.778 -13.1299
lfingers 7.12502
lthumb 8.48458 16.6796
rfemur -11.9531 10.4248 -9.12611
rtibia 11.5601
rfoot -10.7635 -24.1678
rtoes 33.2148
lfemur -18.4918 3.01399 -31.0194
ltibia 15.9906
lfoot -15.8263 1.13344
ltoes 10.0693
1380
root 5.57669 17.4585 1.24813 19.0769 2.45651 1.28467
lowerback -10.2043 -1.39939 9.61898
upperback -14.0641 -2.22318 0.570144
thorax -9.93738 -2.05965 -4.75175
lowerneck -3.11687 19.5212 10.9804
upperneck 8.91646 25.5491 0.0730936
head 4.50364 12.9625 -0.0187098
rclavicle 1.39149e-014 -3.73715e-014
rhumerus -9.06617 -29.2178 29.6165
rradius 112.275
rwrist -63.2164
rhand -3.31301 -41.4548
rfingers 7.12502
rthumb 22.4135 -70.1744
lclavicle 1.39149e-014 -3.73715e-014
lhumerus 23.3881 26.3718 -12.9998
lradius 32.7041
lwrist 56.615
lhand -17.9284 -12.9509
lfingers 7.12502
lthumb 8.33946 16.8645
rfemur -11.9916 10.5561 -9.32003
rtibia 11.6072
rfoot -9.7305 -24.5659
rtoes 31.7666
lfemur -18.3129 3.10216 -31.1655
ltibia 15.954
lfoot -15.8227 1.3188
ltoes 10.3239
1381
root 5.58179 17.4576 1.25529 18.7305 2.21191 1.14092
lowerback -9.95425 -1.32678 9.79058
upperback -13.9363 -2.11149 0.578927
thorax -9.9244 -2.015 -4.83248
lowerneck -3.38568 19.5729 10.8208
upperneck 9.15302 25.5739 0.324314
head 4.56807 12.9824 0.104603
rclavicle -2.98177e-015 1.59028e-015
rhumerus -8.95119 -29.2961 29.4866
rradius 112.199
rwrist -63.0288
rhand -2.82891 -41.5599
rfingers 7.12502
rthumb 22.8782 -70.2228
lclavicle -2.98177e-015 1.59028e-015
lhumerus 23.266 26.1877 -13.1809
lradius 32.752
lwrist 56.7611
lhand -18.353 -12.9237
lfingers 7.12502
lthumb 7.92969 16.9075
rfemur -11.8634 10.7562 -9.19639
rtibia 11.7534
rfoot -9.1659 -24.4506
rtoes 30.9398
lfemur -17.8977 3.26475 -31.0504
ltibia 15.9304
lfoot -15.9146 1.49573
ltoes 10.4907
1382
root 5.58875 17.4574 1.26341 18.623 2.05783 0.951492
lowerback -9.99478 -1.23093 10.0632
upperback -13.8607 -2.00307 0.570476
thorax -9.81785 -1.98151 -4.99663
lowerneck -3.60178 19.6209 10.7805
upperneck 9.39291 25.5978 0.516674
head 4.64776 13.0031 0.19785
rclavicle 5.56597e-015 -2.22639e-014
rhumerus -8.93193 -29.3423 29.4105
rradius 112.211
rwrist -63.0801
rhand -3.11215 -41.676
rfingers 7.12502
rthumb 22.6063 -70.3723
lclavicle 5.56597e-015 -2.22639e-014
lhumerus 23.1534 25.9667 -13.4275
lradius 32.8262
lwrist 56.9138
lhand -18.5328 -12.8007
lfingers 7.12502
lthumb 7.75614 17.0371
rfemur -11.9053 10.8023 -9.04705
rtibia 11.8677
rfoot -9.18927 -24.0942
rtoes 30.9835
lfemur -17.7596 3.4346 -30.9083
ltibia 15.9418
lfoot -16.0003 1.56035
ltoes 10.523
1383
root 5.58209 17.4592 1.23896 19.0761 2.43653 1.09251
lowerback -10.2462 -1.35512 9.90059
upperback -14.027 -2.18163 0.5735
thorax -9.88865 -2.06376 -4.90648
lowerneck -3.69133 19.6337 10.7836
upperneck 9.56017 25.5898 0.662947
head 4.69522 13.0078 0.254703
rclavicle 7.15625e-015 1.03368e-014
rhumerus -8.93155 -29.3898 29.3865
rradius 112.216
rwrist -63.2573
rhand -3.0963 -41.7521
rfingers 7.12502
rthumb 22.6215 -70.4465
lclavicle 7.15625e-015 1.03368e-014
lhumerus 23.2097 26.0297 -13.4063
lradius 32.8219
lwrist 56.7914
lhand -18.0602 -12.5058
lfingers 7.12502
lthumb 8.21222 17.3146
rfemur -12.205 10.3274 -9.14134
rtibia 11.8749
rfoot -10.0672 -23.8198
rtoes 32.4229
lfemur -18.3426 3.20411 -30.9967
ltibia 15.9984
lfoot -15.872 1.3002
ltoes 10.4743
1384
root 5.57959 17.4578 1.2307 19.3107 2.58668 1.18502
lowerback -10.4591 -1.40594 9.80383
upperback -14.0765 -2.26686 0.574262
thorax -9.83166 -2.09636 -4.85856
lowerneck -3.62469 19.6146 10.7992
upperneck 9.45007 25.5747 0.608444
head 4.65859 12.9972 0.223655
rclavicle 5.32743e-014 7.95139e-015
rhumerus -8.91767 -29.4448 29.3528
rradius 112.188
rwrist -63.302
rhand -2.58616 -41.7459
rfingers 7.12502
rthumb 23.1111 -70.3798
lclavicle 5.32743e-014 7.95139e-015
lhumerus 23.349 26.2796 -13.1979
lradius 32.7459
lwrist 56.5101
lhand -17.4728 -12.4356
lfingers 7.12502
lthumb 8.77911 17.3618
rfemur -12.3736 10.0088 -9.20897
rtibia 11.9191
rfoot -9.90106 -23.7894
rtoes 32.1572
lfemur -18.6263 3.09276 -31.0737
ltibia 16.0406
lfoot -15.8353 1.21771
ltoes 10.2585
1385
root 5.58288 17.4585 1.2311 19.313 2.69316 1.13037
lowerback -10.4827 -1.42871 9.924
upperback -14.0667 -2.30422 0.588132
thorax -9.82404 -2.1253 -4.91109
lowerneck -3.35357 19.5781 10.888
upperneck 9.09108 25.5782 0.318901
head 4.55261 12.9851 0.0904548
rclavicle 1.31198e-014 -1.74931e-014
rhumerus -8.86573 -29.4373 29.2932
rradius 112.159
rwrist -63.1631
rhand -2.08457 -41.5333
rfingers 7.12502
rthumb 23.5923 -70.1061
lclavicle 1.31198e-014 -1.74931e-014
lhumerus 23.2123 26.0167 -13.3913
lradius 32.8536
lwrist 56.9074
lhand -18.0642 -12.8103
lfingers 7.12502
lthumb 8.20835 17.0103
rfemur -12.3506 9.8898 -9.10095
rtibia 12.0307
rfoot -9.03633 -23.9722
rtoes 30.3911
lfemur -18.6282 3.11633 -31.0105
ltibia 16.0513
lfoot -15.8784 1.13105
ltoes 10.2121
1386
root 5.58358 17.4587 1.23038 19.2762 2.70348 1.13851
lowerback -10.4583 -1.4333 9.94235
upperback -14.0652 -2.30918 0.574759
thorax -9.83976 -2.13111 -4.93494
lowerneck -3.11344 19.5296 11.0405
upperneck 8.85902 25.5615 0.0116338
head 4.50088 12.9661 -0.0423283
rclavicle 1.64991e-014 6.36111e-015
rhumerus -8.89563 -29.2912 29.3693
rradius 112.24
rwrist -63.0369
rhand -2.14861 -41.2934
rfingers 7.12502
rthumb 23.5309 -69.8741
lclavicle 1.64991e-014 6.36111e-015
lhumerus 23.0152 25.5553 -13.722
lradius 33.053
lwrist 57.6142
lhand -18.5688 -12.9977
lfingers 7.12502
lthumb 7.7214 16.8413
rfemur -12.2893 9.89755 -9.10173
rtibia 12.0045
rfoot -9.00679 -24.0498
rtoes 30.3603
lfemur -18.6038 3.09482 -31.0062
ltibia 16.0768
lfoot -15.9137 1.11515
ltoes 10.3666
1387
root 5.58317 17.457 1.22658 19.2678 2.68738 1.18786
lowerback -10.4646 -1.43007 9.89826
upperback -14.0661 -2.30493 0.55502
thorax -9.83339 -2.12574 -4.9324
lowerneck -2.97048 19.4932 11.1634
upperneck 8.77671 25.5406 -0.173856
head 4.49149 12.9513 -0.121966
rclavicle -1.2921e-014 -1.51076e-014
rhumerus -8.98912 -29.1513 29.5399
rradius 112.364
rwrist -63.148
rhand -2.75426 -41.4818
rfingers 7.12502
rthumb 22.9498 -70.1358
lclavicle -1.2921e-014 -1.51076e-014
lhumerus 23.0893 25.6116 -13.6239
lradius 33.0664
lwrist 57.697
lhand -18.417 -13.048
lfingers 7.12502
lthumb 7.86789 16.7856
rfemur -12.2803 9.87067 -9.1651
rtibia 11.9346
rfoot -8.81819 -24.2527
rtoes 30.2116
lfemur -18.6072 3.0613 -31.0552
ltibia 16.0967
lfoot -15.9272 1.13885
ltoes 10.2559
1388
root 5.58404 17.4575 1.22147 19.2643 2.73514 1.12967
lowerback -10.3992 -1.4516 9.9777
upperback -14.0876 -2.32663 0.581611
thorax -9.90642 -2.14651 -4.94377
lowerneck -3.02797 19.5173 11.1863
upperneck 8.90239 25.5639 -0.14373
head 4.53992 12.9658 -0.099622
rclavicle 5.08889e-014 -1.35174e-014
rhumerus -8.94972 -29.1558 29.5703
rradius 112.366
rwrist -63.3013
rhand -3.1645 -41.6643
rfingers 7.12502
rthumb 22.5561 -70.3666
lclavicle 5.08889e-014 -1.35174e-014
lhumerus 23.1392 25.7246 -13.5082
lradius 33.0502
lwrist 57.6767
lhand -18.7049 -13.3564
lfingers 7.12502
lthumb 7.59003 16.4874
rfemur -12.2624 9.81994 -9.08299
rtibia 11.8858
rfoot -7.47004 -24.7866
rtoes 27.699
lfemur -18.5974 3.03689 -30.9851
ltibia 16.1002
lfoot -15.9144 1.14843
ltoes 10.4137
1389
root 5.58289 17.4596 1.21867 19.2764 2.68033 1.12532
lowerback -10.3167 -1.46315 9.96969
upperback -14.1422 -2.32892 0.597884
thorax -10.0177 -2.15268 -4.9161
lowerneck -3.1768 19.5206 11.2006
upperneck 9.19917 25.5461 -0.0569
head 4.64614 12.9643 -0.0450311
rclavicle 2.98177e-015 4.77083e-015
rhumerus -8.84594 -29.0618 29.5244
rradius 112.381
rwrist -63.318
rhand -3.65452 -41.5684
rfingers 7.12502
rthumb 22.0857 -70.3271
lclavicle 2.98177e-015 4.77083e-015
lhumerus 23.0596 25.5612 -13.6235
lradius 33.0959
lwrist 57.7894
lhand -19.0455 -13.3979
lfingers 7.12502
lthumb 7.26127 16.4575
rfemur -12.2369 9.84183 -9.09673
rtibia 11.7669
rfoot -6.24179 -25.147
rtoes 25.3481
lfemur -18.6357 3.04103 -30.9849
ltibia 16.1344
lfoot -15.9107 1.1868
ltoes 10.6742
1390
root 5.58205 17.4601 1.22199 19.148 2.46987 1.07616
lowerback -10.284 -1.41279 10.0078
upperback -14.0657 -2.26468 0.597154
thorax -9.93694 -2.11846 -4.93961
lowerneck -3.26575 19.5076 11.1891
upperneck 9.30936 25.518 -0.0351813
head 4.68916 12.9517 -0.0245587
rclavicle 3.26007e-014 -1.98785e-014
rhumerus -8.82675 -28.9794 29.4784
rradius 112.462
rwrist -63.3292
rhand -4.14007 -41.7027
rfingers 7.12502
rthumb 21.6194 -70.5158
lclavicle 3.26007e-014 -1.98785e-014
lhumerus 22.9083 25.4124 -13.8976
lradius 33.1202
lwrist 57.8495
lhand -18.864 -13.0336
lfingers 7.12502
lthumb 7.43645 16.8157
rfemur -12.1466 10.0031 -9.09704
rtibia 11.6294
rfoot -6.30988 -25.0395
rtoes 25.7053
lfemur -18.5184 3.08968 -30.9567
ltibia 16.171
lfoot -15.9717 1.41273
ltoes 10.4991
